#define cursor_mask_width 37
#define cursor_mask_height 37
#define cursor_mask_x_hot 16
#define cursor_mask_y_hot 16
static unsigned char cursor_mask_bits[] = {
   0x00, 0xe0, 0xff, 0x00, 0x00, 0x00, 0xe0, 0xff, 0x00, 0x00, 0x00, 0xc0,
   0x7f, 0x00, 0x00, 0x00, 0x00, 0x00, 0x00, 0x00, 0x00, 0x00, 0x04, 0x00,
   0x00, 0x00, 0x00, 0x0e, 0x00, 0x00, 0x00, 0x00, 0x0e, 0x00, 0x00, 0x00,
   0x00, 0x0e, 0x00, 0x00, 0x00, 0x00, 0x0e, 0x00, 0x00, 0x00, 0x00, 0x0e,
   0x00, 0x00, 0x00, 0x00, 0x0e, 0x00, 0x00, 0x00, 0x00, 0x0e, 0x00, 0x00,
   0x00, 0x80, 0x3f, 0x00, 0x00, 0x03, 0xc0, 0x7f, 0x00, 0x18, 0x07, 0xe0,
   0xff, 0x00, 0x1c, 0x07, 0x70, 0xce, 0x01, 0x1c, 0x07, 0x70, 0xc4, 0x01,
   0x1c, 0xe7, 0xff, 0xe0, 0xff, 0x1c, 0xf7, 0xff, 0xf1, 0xff, 0x1d, 0xe7,
   0xff, 0xe0, 0xff, 0x1c, 0x07, 0x70, 0xc4, 0x01, 0x1c, 0x07, 0x70, 0xce,
   0x01, 0x1c, 0x07, 0xe0, 0xff, 0x00, 0x1c, 0x03, 0xc0, 0x7f, 0x00, 0x18,
   0x00, 0x80, 0x3f, 0x00, 0x00, 0x00, 0x00, 0x0e, 0x00, 0x00, 0x00, 0x00,
   0x0e, 0x00, 0x00, 0x00, 0x00, 0x0e, 0x00, 0x00, 0x00, 0x00, 0x0e, 0x00,
   0x00, 0x00, 0x00, 0x0e, 0x00, 0x00, 0x00, 0x00, 0x0e, 0x00, 0x00, 0x00,
   0x00, 0x0e, 0x00, 0x00, 0x00, 0x00, 0x04, 0x00, 0x00, 0x00, 0x00, 0x00,
   0x00, 0x00, 0x00, 0xc0, 0x7f, 0x00, 0x00, 0x00, 0xe0, 0xff, 0x00, 0x00,
   0x00, 0xe0, 0xff, 0x00, 0x00 };
