#define cursor_width 37
#define cursor_height 37
#define cursor_x_hot 0
#define cursor_y_hot 0
static unsigned char cursor_bits[] = {
   0x00, 0xe0, 0xff, 0x00, 0x00, 0x00, 0x20, 0x80, 0x00, 0x00, 0x00, 0xc0,
   0x7f, 0x00, 0x00, 0x00, 0x00, 0x00, 0x00, 0x00, 0x00, 0x00, 0x04, 0x00,
   0x00, 0x00, 0x00, 0x0a, 0x00, 0x00, 0x00, 0x00, 0x0a, 0x00, 0x00, 0x00,
   0x00, 0x0a, 0x00, 0x00, 0x00, 0x00, 0x0a, 0x00, 0x00, 0x00, 0x00, 0x0a,
   0x00, 0x00, 0x00, 0x00, 0x0a, 0x00, 0x00, 0x00, 0x00, 0x0a, 0x00, 0x00,
   0x00, 0x80, 0x3b, 0x00, 0x00, 0x03, 0x40, 0x40, 0x00, 0x18, 0x05, 0xa0,
   0xbb, 0x00, 0x14, 0x05, 0x50, 0x4a, 0x01, 0x14, 0x05, 0x50, 0x44, 0x01,
   0x14, 0xe5, 0xdf, 0x60, 0xff, 0x14, 0x15, 0x00, 0x11, 0x00, 0x15, 0xe5,
   0xdf, 0x60, 0xff, 0x14, 0x05, 0x50, 0x44, 0x01, 0x14, 0x05, 0x50, 0x4a,
   0x01, 0x14, 0x05, 0xa0, 0xbb, 0x00, 0x14, 0x03, 0x40, 0x40, 0x00, 0x18,
   0x00, 0x80, 0x3b, 0x00, 0x00, 0x00, 0x00, 0x0a, 0x00, 0x00, 0x00, 0x00,
   0x0a, 0x00, 0x00, 0x00, 0x00, 0x0a, 0x00, 0x00, 0x00, 0x00, 0x0a, 0x00,
   0x00, 0x00, 0x00, 0x0a, 0x00, 0x00, 0x00, 0x00, 0x0a, 0x00, 0x00, 0x00,
   0x00, 0x0a, 0x00, 0x00, 0x00, 0x00, 0x04, 0x00, 0x00, 0x00, 0x00, 0x00,
   0x00, 0x00, 0x00, 0xc0, 0x7f, 0x00, 0x00, 0x00, 0x20, 0x80, 0x00, 0x00,
   0x00, 0xe0, 0xff, 0x00, 0x00 };
